<svg width="80" height="19" viewBox="0 0 80 19" fill="none" xmlns="http://www.w3.org/2000/svg">
<path d="M16.7612 8.4666L9.95202 1.74912C9.37343 1.17835 8.43542 1.17835 7.85683 1.74912L1.04768 8.4666C0.469131 9.0374 0.469131 9.96278 1.04768 10.5336L7.85683 17.2511C8.43542 17.8218 9.37343 17.8218 9.95202 17.2511L16.7612 10.5336C17.3397 9.96278 17.3397 9.0374 16.7612 8.4666Z" fill="black" fill-opacity="0.35"/>
<path d="M29.0344 7.04288C28.9924 6.62422 28.8117 6.29896 28.4925 6.06714C28.1734 5.83531 27.7402 5.7194 27.1931 5.7194C26.8213 5.7194 26.5074 5.7713 26.2514 5.8751C25.9953 5.97545 25.799 6.11558 25.6621 6.29551C25.5289 6.47543 25.4622 6.67957 25.4622 6.90794C25.4552 7.09824 25.4955 7.26432 25.5832 7.40616C25.6744 7.54808 25.799 7.67092 25.9567 7.77469C26.1146 7.87502 26.297 7.9633 26.5039 8.03937C26.7108 8.11208 26.9318 8.17434 27.1668 8.22623L28.1348 8.45459C28.6048 8.55836 29.0361 8.69677 29.429 8.86982C29.8218 9.04279 30.162 9.25559 30.4496 9.50822C30.7372 9.76077 30.9599 10.0583 31.1178 10.4009C31.2791 10.7434 31.3615 11.1362 31.365 11.5791C31.3615 12.2295 31.1932 12.7935 30.86 13.271C30.5303 13.7451 30.0533 14.1135 29.429 14.3765C28.8082 14.636 28.0594 14.7658 27.1826 14.7658C26.3127 14.7658 25.5552 14.6343 24.9098 14.3713C24.268 14.1083 23.7664 13.7191 23.4052 13.2036C23.0475 12.6846 22.8598 12.0427 22.8423 11.278H25.0467C25.0712 11.6344 25.1747 11.932 25.357 12.1707C25.5429 12.406 25.7901 12.5842 26.0988 12.7053C26.411 12.8229 26.7635 12.8817 27.1563 12.8817C27.5421 12.8817 27.877 12.8264 28.1611 12.7157C28.4487 12.605 28.6714 12.451 28.8292 12.2538C28.9871 12.0566 29.066 11.8299 29.066 11.5739C29.066 11.3351 28.9941 11.1344 28.8503 10.9718C28.71 10.8092 28.503 10.6708 28.2295 10.5566C27.9594 10.4424 27.628 10.3386 27.2352 10.2452L26.062 9.95457C25.1536 9.73658 24.4364 9.39575 23.9103 8.93208C23.3841 8.46841 23.1229 7.84389 23.1264 7.05845C23.1229 6.41488 23.2965 5.85262 23.6472 5.37166C24.0015 4.89071 24.4872 4.5153 25.1045 4.24541C25.7218 3.97552 26.4232 3.84058 27.2089 3.84058C28.0085 3.84058 28.7065 3.97552 29.3027 4.24541C29.9025 4.5153 30.369 4.89071 30.7021 5.37166C31.0353 5.85262 31.2072 6.40969 31.2177 7.04288H29.0344ZM32.5269 14.6153V3.9859H36.7778C37.595 3.9859 38.2911 4.13988 38.8664 4.44782C39.4415 4.75231 39.8799 5.17617 40.1815 5.7194C40.4867 6.25917 40.6392 6.88199 40.6392 7.58783C40.6392 8.29368 40.485 8.91651 40.1763 9.45626C39.8677 9.99608 39.4205 10.4165 38.8347 10.7175C38.2526 11.0185 37.5476 11.169 36.7198 11.169H34.0105V9.36806H36.3516C36.79 9.36806 37.1512 9.29366 37.4353 9.14488C37.723 8.99266 37.9369 8.78329 38.0772 8.51686C38.221 8.24698 38.2929 7.93728 38.2929 7.58783C38.2929 7.23492 38.221 6.92697 38.0772 6.66401C37.9369 6.39757 37.723 6.1917 37.4353 6.04638C37.1478 5.8976 36.783 5.8232 36.3411 5.8232H34.8049V14.6153H32.5269ZM42.3615 14.6153H39.9204L43.6398 3.9859H46.5755L50.2897 14.6153H47.8486L45.1498 6.41488H45.0655L42.3615 14.6153ZM42.2089 10.4372H47.9749V12.1915H42.2089V10.4372ZM51.2161 14.6153V3.9859H55.467C56.2807 3.9859 56.9751 4.12949 57.5503 4.41668C58.129 4.70041 58.5692 5.10351 58.8708 5.62598C59.1759 6.14499 59.3285 6.7557 59.3285 7.45812C59.3285 8.16397 59.1742 8.77116 58.8655 9.27985C58.5569 9.78503 58.1097 10.1726 57.524 10.4424C56.9418 10.7123 56.2368 10.8473 55.4091 10.8473H52.563V9.04111H55.0408C55.4758 9.04111 55.837 8.98228 56.1246 8.86463C56.4122 8.74698 56.6261 8.57049 56.7664 8.33519C56.9102 8.09995 56.9821 7.80757 56.9821 7.45812C56.9821 7.10516 56.9102 6.80759 56.7664 6.5654C56.6261 6.32319 56.4104 6.1398 56.1193 6.01524C55.8318 5.88721 55.4687 5.8232 55.0303 5.8232H53.4941V14.6153H51.2161ZM57.0347 9.77809L59.7126 14.6153H57.1978L54.5778 9.77809H57.0347ZM60.568 14.6153V3.9859H62.846V8.67258H62.988L66.8653 3.9859H69.5958L65.5975 8.74522L69.6431 14.6153H66.9179L63.9666 10.2452L62.846 11.5946V14.6153H60.568ZM76.1696 7.04288C76.1281 6.62422 75.9473 6.29896 75.6281 6.06714C75.3088 5.83531 74.8755 5.7194 74.3288 5.7194C73.9567 5.7194 73.6428 5.7713 73.3868 5.8751C73.1307 5.97545 72.9344 6.11558 72.7976 6.29551C72.6643 6.47543 72.5976 6.67957 72.5976 6.90794C72.5907 7.09824 72.631 7.26432 72.7187 7.40616C72.8098 7.54808 72.9344 7.67092 73.0922 7.77469C73.25 7.87502 73.4324 7.9633 73.6393 8.03937C73.8463 8.11208 74.0672 8.17434 74.3021 8.22623L75.2703 8.45459C75.7399 8.55836 76.1718 8.69677 76.5644 8.86982C76.957 9.04279 77.2977 9.25559 77.5851 9.50822C77.8725 9.76077 78.0955 10.0583 78.2532 10.4009C78.4147 10.7434 78.4969 11.1362 78.5007 11.5791C78.4969 12.2295 78.3288 12.7935 77.9955 13.271C77.6658 13.7451 77.1888 14.1135 76.5644 14.3765C75.9436 14.636 75.1947 14.7658 74.3177 14.7658C73.4481 14.7658 72.6906 14.6343 72.0452 14.3713C71.4034 14.1083 70.9018 13.7191 70.5407 13.2036C70.1829 12.6846 69.9953 12.0427 69.9777 11.278H72.1821C72.2066 11.6344 72.3101 11.932 72.4924 12.1707C72.6783 12.406 72.9256 12.5842 73.2342 12.7053C73.5464 12.8229 73.8989 12.8817 74.2918 12.8817C74.6777 12.8817 75.0125 12.8264 75.2962 12.7157C75.5844 12.605 75.8066 12.451 75.9644 12.2538C76.1221 12.0566 76.2014 11.8299 76.2014 11.5739C76.2014 11.3351 76.1296 11.1344 75.9858 10.9718C75.8451 10.8092 75.6384 10.6708 75.3651 10.5566C75.0947 10.4424 74.7636 10.3386 74.3703 10.2452L73.1974 9.95457C72.289 9.73658 71.5718 9.39575 71.0457 8.93208C70.5195 8.46841 70.2583 7.84389 70.2618 7.05845C70.2583 6.41488 70.4319 5.85262 70.7827 5.37166C71.1369 4.89071 71.6227 4.5153 72.2399 4.24541C72.8572 3.97552 73.5587 3.84058 74.3444 3.84058C75.1436 3.84058 75.8421 3.97552 76.4384 4.24541C77.0377 4.5153 77.5044 4.89071 77.8377 5.37166C78.171 5.85262 78.3429 6.40969 78.3533 7.04288H76.1696Z" fill="black" fill-opacity="0.35"/>
</svg>
